# xmcd
#
# Track frame offsets:
#	150
#	15852
#	31232
#	46700
#	60635
#	76855
#	91547
#	106662
#	118280
#	130682
#
# Disc length: 2033 seconds
#
# Revision: 0
# Processed by: cddbd v1.5.1PL2 Copyright (c) Steve Scherf et al.
# Submitted via: dBpowerAMP V4.0
#
DISCID=6207ef0a
DTITLE=Various Artist - New Country Volume 2
DYEAR=1994
DGENRE=Country
TTITLE0=John Berry - Kiss Me In The Car
TTITLE1=Highway 101 - You Baby You
TTITLE2=Billy Dean - We Just Disagree
TTITLE3=Ricky Lynn Gregg - If I Had A Cheatin' Heart
TTITLE4=McBride and The Ride - Hurry Sundown
TTITLE5=Marty Stuart - Tempted
TTITLE6=Suzy Bogguss - Just Like The Weather
TTITLE7=Larry Stewart - Alright Already
TTITLE8=Charlie Floyd - Good Girls Go To Heaven
TTITLE9=Ronnie Milsap - True Believer
EXTD=
EXTT0=
EXTT1=
EXTT2=
EXTT3=
EXTT4=
EXTT5=
EXTT6=
EXTT7=
EXTT8=
EXTT9=
PLAYORDER=
